HIERARCHY
ROOT root
{
	OFFSET	0	13.1	24.9
	CHANNELS 6  Xposition Yposition Zposition Xrotation Yrotation Zrotation
	JOINT spine_1
	{
		OFFSET	0	9.99999	0
		CHANNELS 3  Xrotation Yrotation Zrotation
		JOINT spine_2
		{
			OFFSET	0	112	-10
			CHANNELS 3  Xrotation Yrotation Zrotation
			JOINT spine_3
			{
				OFFSET	0	206.5	19.3
				CHANNELS 3  Xrotation Yrotation Zrotation
				JOINT spine_4
				{
					OFFSET	0	110.4	14.6
					CHANNELS 3  Xrotation Yrotation Zrotation
					JOINT neck_1
					{
						OFFSET	0	71.8	-50.3
						CHANNELS 3  Xrotation Yrotation Zrotation
						JOINT neck_2
						{
							OFFSET	0	86.2	-25.8
							CHANNELS 3  Xrotation Yrotation Zrotation
							JOINT head_ee
							{
								OFFSET	0	179.8	-8.7
								CHANNELS 3  Xrotation Yrotation Zrotation
								End Site
								{
									OFFSET	1	0	0
								}
							}
						}
					}
					JOINT left_clavicle
					{
						OFFSET	-43.2	22.4	-70.8
						CHANNELS 3  Xrotation Yrotation Zrotation
						JOINT left_shoulder
						{
							OFFSET	-93.9	-5.79999	48.7
							CHANNELS 3  Xrotation Yrotation Zrotation
							JOINT left_elbow
							{
								OFFSET	-291.4	-30.8	15.2
								CHANNELS 3  Xrotation Yrotation Zrotation
								JOINT left_lowarm_twist
								{
									OFFSET	-110.7	-3.89999	13.6
									CHANNELS 3  Xrotation Yrotation Zrotation
									JOINT left_hand
									{
										OFFSET	-110.7	-3.89999	13.6
										CHANNELS 3  Xrotation Yrotation Zrotation
										JOINT left_ee
										{
											OFFSET	-80.8	-5.10001	12.1
											CHANNELS 3  Xrotation Yrotation Zrotation
											End Site
											{
												OFFSET	1	0	0
											}
										}
									}
								}
							}
						}
					}
					JOINT right_clavicle
					{
						OFFSET	43.2	22.4	-70.8
						CHANNELS 3  Xrotation Yrotation Zrotation
						JOINT right_shoulder
						{
							OFFSET	93.9	-5.79999	48.7
							CHANNELS 3  Xrotation Yrotation Zrotation
							JOINT right_elbow
							{
								OFFSET	291.4	-30.8	15.2
								CHANNELS 3  Xrotation Yrotation Zrotation
								JOINT right_lowarm_twist
								{
									OFFSET	110.7	-3.89999	13.6
									CHANNELS 3  Xrotation Yrotation Zrotation
									JOINT right_hand
									{
										OFFSET	110.7	-3.89999	13.6
										CHANNELS 3  Xrotation Yrotation Zrotation
										JOINT right_ee
										{
											OFFSET	80.8	-5.10001	12.1
											CHANNELS 3  Xrotation Yrotation Zrotation
											End Site
											{
												OFFSET	1	0	0
											}
										}
									}
								}
							}
						}
					}
				}
			}
		}
	}
	JOINT left_hip
	{
		OFFSET	-82.8	-127.5	0.300001
		CHANNELS 3  Xrotation Yrotation Zrotation
		JOINT left_knee
		{
			OFFSET	-28.2	-396.7	2.2
			CHANNELS 3  Xrotation Yrotation Zrotation
			JOINT left_ankle
			{
				OFFSET	-11.7	-411.3	35.4
				CHANNELS 3  Xrotation Yrotation Zrotation
				JOINT left_toes
				{
					OFFSET	0	-60	-88.6
					CHANNELS 3  Xrotation Yrotation Zrotation
					JOINT left_foot_ee
					{
						OFFSET	-22.5	-16.5	-42.2
						CHANNELS 3  Xrotation Yrotation Zrotation
						End Site
						{
							OFFSET	1	0	0
						}
					}
				}
			}
		}
	}
	JOINT right_hip
	{
		OFFSET	82.8	-127.5	0.300001
		CHANNELS 3  Xrotation Yrotation Zrotation
		JOINT right_knee
		{
			OFFSET	28.2	-396.7	2.2
			CHANNELS 3  Xrotation Yrotation Zrotation
			JOINT right_ankle
			{
				OFFSET	11.7	-411.3	35.4
				CHANNELS 3  Xrotation Yrotation Zrotation
				JOINT right_toes
				{
					OFFSET	0	-60	-88.6
					CHANNELS 3  Xrotation Yrotation Zrotation
					JOINT right_foot_ee
					{
						OFFSET	22.5	-16.5	-42.2
						CHANNELS 3  Xrotation Yrotation Zrotation
						End Site
						{
							OFFSET	1	0	0
						}
					}
				}
			}
		}
	}
}
MOTION
Frames: 11
Frame Time: 0.02
1100.21 719.123 -1425.53 -3.85912 77.5383 -3.81175 2.62679 0.947991 3.61139 2.63376 0.716427 3.66429 2.67845 0.105462 3.73209 2.65968 0.693152 3.66876 -17.9937 11.0139 -1.41704 -18.6041 21.9427 3.0523 -0.0 0.0 -0.0 -12.7806 21.1979 -16.7483 -2.29125 -32.1524 80.4292 1.0925 -28.4211 0.276666 -15.0548 -0.766535 1.76023 5.25055 -28.1852 21.9341 -0.0 0.0 -0.0 11.0933 2.87917 -22.095 -9.24836 22.8595 -70.0392 1.98708 44.5429 -0.813872 24.9175 -0.195286 3.15201 -0.586861 -21.2053 -5.05606 0.0 0.0 0.0 9.58248 5.35355 1.48777 -35.8057 -0.221715 5.40222 36.3259 1.10854 -4.53808 -38.0265 0.0 0.0 -0.0 0.0 -0.0 10.4949 12.4416 1.50277 -10.7373 -0.291037 -1.61972 34.0782 -3.25924 4.31188 -27.2398 0.0 0.0 0.0 0.0 0.0 
1095.59 721.443 -1420.05 -8.11996 78.0298 0.758694 2.73242 0.54211 3.69296 2.73995 0.306185 3.71992 2.7581 -0.304044 3.72009 2.7389 0.286872 3.72145 -16.1715 10.0874 -3.55361 -16.6179 21.3669 0.318601 -0.0 0.0 -0.0 -12.2219 21.9895 -15.4316 -3.99751 -32.9185 79.6028 0.737361 -20.0656 0.130454 -15.0858 -0.768582 1.76363 5.20581 -27.4449 22.1137 -0.0 0.0 -0.0 11.2062 2.85326 -22.3365 -7.79616 23.7924 -69.4981 2.22375 47.7609 -0.984622 25.5133 -0.183101 3.22715 -0.174209 -18.2199 -6.33351 0.0 0.0 0.0 12.0667 2.44663 1.74157 -30.9907 0.00484783 4.69841 37.8646 5.30413 -4.66809 -38.1745 0.0 0.0 -0.0 0.0 -0.0 11.6689 9.34131 1.49454 -9.68099 -0.275937 -1.45834 32.9312 -5.33741 4.19336 -31.2931 0.0 0.0 0.0 0.0 0.0 
1091.7 725.913 -1418.5 -13.6724 79.1131 6.09663 2.84828 0.356371 3.85482 2.85654 0.110545 3.86965 2.86172 -0.515001 3.83687 2.84119 0.0969546 3.87002 -15.8242 10.0197 -3.09175 -16.2422 20.9788 0.656943 -0.0 0.0 -0.0 -11.1226 21.4543 -13.931 -5.04425 -32.733 78.8531 0.466966 -13.0248 0.0533069 -15.6223 -0.80432 1.82228 5.37317 -27.2406 23.386 -0.0 0.0 -0.0 11.3095 3.71948 -22.5986 -7.48 24.3468 -68.8172 2.51206 51.2064 -1.2039 24.2991 -0.207105 3.07391 -0.0230641 -15.7886 -6.307 0.0 0.0 0.0 13.7849 -0.221224 1.43556 -24.6721 0.211002 3.7511 38.1638 3.62632 -4.697 -38.374 0.0 0.0 -0.0 0.0 -0.0 12.5705 8.32411 1.88961 -10.1229 -0.282617 -1.52582 33.8502 -5.20321 4.2856 -31.8095 0.0 0.0 0.0 0.0 0.0 
1086.98 721.192 -1415.42 -16.7618 79.6007 9.55987 3.02908 0.305808 3.84251 3.03729 0.0608642 3.85416 3.03869 -0.549836 3.81528 3.01839 0.0591529 3.85419 -16.8489 9.79534 -3.57304 -17.304 20.8012 0.317685 -0.0 0.0 -0.0 -10.9592 21.5303 -13.6375 -4.99279 -35.7467 78.598 0.200965 -5.68532 0.00997881 -17.9984 -0.969143 2.07794 5.37523 -24.5586 25.1487 -0.0 0.0 -0.0 11.2848 3.72891 -22.5455 -5.84463 24.6554 -68.2634 2.81209 54.3167 -1.44285 25.7513 -0.178014 3.25713 0.574044 -13.7964 -9.28786 0.0 0.0 0.0 13.9268 -3.33086 1.68198 -18.7692 0.308255 2.85093 37.1152 9.87487 -4.61366 -38.0034 0.0 0.0 -0.0 0.0 -0.0 13.0821 7.53314 1.67746 -10.0998 -0.28228 -1.52228 36.0023 -6.12838 4.49503 -33.5996 0.0 0.0 0.0 0.0 0.0 
1080.87 723.122 -1411.93 -21.0247 78.8806 13.8698 3.21231 0.23607 3.84411 3.22053 -0.00883474 3.85133 3.21681 -0.606521 3.80336 3.19663 0.00129631 3.85134 -14.516 9.39375 -5.00464 -14.8168 20.9405 -1.62847 -0.0 0.0 -0.0 -10.4681 21.5269 -12.8664 -7.15747 -34.3132 77.9273 0.185537 -5.25141 0.0085086 -19.7505 -1.09743 2.26201 5.4078 -20.3148 28.0762 -0.0 0.0 -0.0 11.3122 2.93446 -22.5688 -5.39099 23.8893 -68.0252 3.14047 57.2548 -1.71449 24.1776 -0.209329 3.05855 0.751591 -14.1535 -10.5477 0.0 0.0 0.0 15.4093 -6.41547 1.76879 -15.6378 0.322079 2.37074 36.9203 12.3671 -4.61546 -39.6291 0.0 0.0 -0.0 0.0 -0.0 14.291 6.42149 1.91235 -10.7635 -0.291373 -1.62372 35.4655 -6.13087 4.44366 -36.938 0.0 0.0 0.0 0.0 0.0 
1075.84 727.793 -1409.78 -26.4028 78.77 19.5317 3.3323 0.374802 3.82314 3.34042 0.130949 3.83921 3.3459 -0.457635 3.81412 3.32564 0.150019 3.83851 -12.1862 9.31579 -5.20913 -12.3562 20.996 -2.30427 -0.0 0.0 -0.0 -9.82305 20.5261 -12.2741 -8.22184 -33.4654 78.2996 0.180509 -5.10987 0.00805462 -21.7754 -1.25265 2.46979 5.1557 -14.0841 29.8888 -0.0 0.0 -0.0 11.0843 2.413 -22.0537 -6.27376 23.3891 -68.6204 3.57006 60.4987 -2.08239 22.9647 -0.229734 2.90496 0.895578 -12.5447 -10.8779 0.0 0.0 0.0 15.3381 -8.67872 1.68984 -11.5636 0.300773 1.74613 33.4253 13.4221 -4.28103 -40.2454 0.0 0.0 -0.0 0.0 -0.0 15.6372 6.61712 1.51757 -12.0433 -0.305587 -1.81957 34.3766 -5.68343 4.33749 -37.8457 0.0 0.0 0.0 0.0 0.0 
1070.61 727.692 -1406.43 -30.2367 78.8043 23.4235 3.40813 0.350855 3.94853 3.41679 0.0990895 3.96283 3.41994 -0.503057 3.93207 3.39839 0.123748 3.96214 -12.0237 8.30553 -6.91642 -12.1017 20.1811 -4.28974 -0.0 0.0 -0.0 -9.26822 19.6812 -11.7302 -9.49533 -34.478 77.3052 0.178977 -5.06672 0.00791872 -23.0943 -1.35767 2.60216 5.0571 -5.87365 33.4812 -0.0 0.0 -0.0 10.7899 1.14067 -21.3625 -6.50096 23.2717 -68.8324 4.13065 63.9358 -2.57858 22.4057 -0.238043 2.83404 1.35472 -9.49726 -12.7541 0.0 0.0 0.0 14.9635 -9.39898 2.34091 -8.65811 0.258483 1.30235 34.1423 19.4593 -4.44146 -40.2444 0.0 0.0 -0.0 0.0 -0.0 16.1651 5.32612 1.60949 -11.845 -0.303672 -1.78921 36.2195 -6.38944 4.51595 -39.5417 0.0 0.0 0.0 0.0 0.0 
1064.16 728.37 -1404.57 -34.5742 78.7477 28.2558 3.52629 0.526818 3.96739 3.535 0.273501 3.99282 3.55011 -0.325731 3.9889 3.52805 0.307814 3.99032 -10.6976 8.65642 -7.04462 -10.7156 21.0005 -4.57353 -0.0 0.0 -0.0 -8.86746 17.754 -11.8097 -9.79369 -34.0706 76.5662 0.18989 -5.3739 0.00891163 -25.3027 -1.54029 2.81831 5.10701 -0.0202532 36.6448 -0.0 0.0 -0.0 10.3945 0.46444 -20.4971 -6.90248 22.9381 -69.4561 4.17768 64.1905 -2.62088 21.7093 -0.247425 2.74558 1.66246 -7.59108 -14.1029 0.0 0.0 0.0 14.3245 -12.0674 1.76129 -6.84937 0.22081 1.02736 32.5204 21.2718 -4.30529 -40.2813 0.0 0.0 -0.0 0.0 -0.0 16.5115 5.42726 1.80147 -11.4643 -0.299699 -1.73094 35.5069 -5.85778 4.44746 -40.1132 0.0 0.0 0.0 0.0 0.0 
1058.83 728.495 -1402.69 -35.2832 78.1847 29.1717 3.64323 0.67629 3.95403 3.65182 0.423519 3.98897 3.67716 -0.167553 4.00786 3.65506 0.467003 3.98412 -9.82147 8.32769 -7.94625 -9.74798 21.0348 -5.72532 -0.0 0.0 -0.0 -8.30834 16.1518 -11.4522 -10.374 -34.7629 75.5521 0.195404 -5.52899 0.0094355 -27.2242 -1.7059 3.0006 5.2744 4.86052 40.1275 -0.0 0.0 -0.0 9.99469 -0.168772 -19.6357 -7.25166 23.0341 -70.0434 4.26436 64.6479 -2.69906 21.4916 -0.250137 2.71791 1.87843 -5.95807 -14.9562 0.0 0.0 0.0 13.04 -13.4222 1.54086 -5.93233 0.198397 0.888417 32.4463 23.6345 -4.35002 -40.1733 0.0 0.0 -0.0 0.0 -0.0 16.8282 6.49991 1.46893 -11.4467 -0.299505 -1.72823 35.3634 -6.0078 4.43372 -40.1548 0.0 0.0 0.0 0.0 0.0 
1054.08 729.827 -1400.61 -35.6577 77.6802 29.6248 3.71892 0.801624 3.94214 3.7274 0.549356 3.98506 3.76137 -0.0362774 4.02253 3.73929 0.59895 3.97792 -9.11204 7.93909 -9.02841 -8.93987 21.0936 -7.04385 -0.0 0.0 -0.0 -7.83824 14.9848 -11.0504 -10.5318 -35.2395 74.783 0.215097 -6.08223 0.0114276 -27.9962 -1.77415 3.07227 5.42569 7.27128 42.3948 -0.0 0.0 -0.0 9.86032 -1.15167 -19.3092 -7.54291 22.9147 -70.4307 4.02773 63.3618 -2.48636 20.8832 -0.257159 2.64051 1.99001 -4.95528 -15.3409 0.0 0.0 0.0 13.0541 -13.6958 1.84732 -5.07458 0.175421 0.758788 32.2975 25.908 -4.39245 -40.1127 0.0 0.0 -0.0 0.0 -0.0 17.078 7.57284 1.53276 -11.748 -0.302696 -1.77436 33.509 -5.16106 4.25161 -39.9217 0.0 0.0 0.0 0.0 0.0 
1049.39 730.387 -1400.63 -35.737 77.3719 29.8342 3.79567 0.893532 4.03023 3.80448 0.635487 4.0788 3.84513 0.0415538 4.12772 3.82202 0.692382 4.06955 -8.84111 8.2595 -7.78078 -8.71938 20.8502 -5.77696 -0.0 0.0 -0.0 -7.67747 14.3421 -10.9841 -10.5762 -35.9776 74.0806 0.223358 -6.31396 0.0123194 -28.9951 -1.86388 3.16363 5.41902 9.2237 43.0268 -0.0 0.0 -0.0 9.83677 -0.340023 -19.3023 -8.25846 22.8162 -70.6818 3.76067 61.757 -2.24932 20.6528 -0.259604 2.61118 2.12206 -4.12793 -15.9339 0.0 0.0 0.0 12.6784 -14.1621 1.87635 -4.77088 0.166821 0.712973 33.0411 27.0223 -4.508 -40.1612 0.0 0.0 -0.0 0.0 -0.0 16.5248 7.59506 1.07774 -11.6484 -0.301669 -1.75911 33.9174 -4.62708 4.29285 -39.6334 0.0 0.0 0.0 0.0 0.0 
